<svg xmlns="http://www.w3.org/2000/svg" width="24.304" height="24.439" viewBox="0 0 24.304 24.439"><defs><style>.a{fill:#9a9a9a;}</style></defs><g transform="translate(-0.106)"><path class="a" d="M13.48,0V4.235a8,8,0,0,1,0,15.969V24.43a12.229,12.229,0,0,0,0-24.42Z" transform="translate(-0.616)"/><path class="a" d="M14.094,12.22a2.108,2.108,0,0,0-2.108-2.108H4.517a8.042,8.042,0,0,1,7.336-5.886V0a12.229,12.229,0,0,0,0,24.439V20.214a8.032,8.032,0,0,1-7.336-5.9h7.469a2.108,2.108,0,0,0,2.108-2.089Z"/></g></svg>