<svg xmlns="http://www.w3.org/2000/svg" xmlns:xlink="http://www.w3.org/1999/xlink" width="590" height="774" viewBox="0 0 590 774"><defs><style>.a{fill:#6d6767;opacity:0.15;}.b{fill:url(#a);}.c{fill:url(#b);}.d{fill:url(#c);}.e,.g{fill:#f3f3f3;}.f{fill:#fff;}.g{stroke:#f9f8f8;}.h{fill:#e3e3e3;}.i{fill:#e2e2e2;}</style><linearGradient id="a" x1="0.5" x2="0.5" y2="1" gradientUnits="objectBoundingBox"><stop offset="0" stop-color="#f6f6f6"/><stop offset="1" stop-color="#ececec"/></linearGradient><linearGradient id="b" x1="0.5" x2="0.5" y2="1" gradientUnits="objectBoundingBox"><stop offset="0" stop-color="#fff"/><stop offset="1" stop-color="#f3f3f3"/></linearGradient><linearGradient id="c" x1="0.5" x2="0.5" y2="1" gradientUnits="objectBoundingBox"><stop offset="0" stop-color="#f3f3f3"/><stop offset="1" stop-color="#fff"/></linearGradient></defs><g transform="translate(-1065.654 -226.59)"><ellipse class="a" cx="144" cy="19" rx="144" ry="19" transform="translate(1116.654 911.59)"/><ellipse class="a" cx="144" cy="19" rx="144" ry="19" transform="translate(1316.654 812.59)"/><g transform="translate(1309.355 226.59)"><path class="b" d="M34.1,0H261.2a34.1,34.1,0,0,1,34.1,34.1V578.263a34.1,34.1,0,0,1-34.1,34.1H34.1A34.1,34.1,0,0,1,0,578.263V34.1A34.1,34.1,0,0,1,34.1,0Z" transform="translate(0 0)"/><path class="c" d="M32.244,0H260.152A32.161,32.161,0,0,1,292.4,32.077V577.384a32.161,32.161,0,0,1-32.244,32.077H32.244A32.161,32.161,0,0,1,0,577.384V32.077A32.161,32.161,0,0,1,32.244,0Z" transform="translate(1.451 1.451)"/><g transform="translate(179.669 13.018)"><ellipse class="d" cx="5.134" cy="5.134" rx="5.134" ry="5.134" transform="translate(0 0)"/><circle class="c" cx="4.564" cy="4.564" r="4.564" transform="translate(0 0)"/><ellipse class="e" cx="3.423" cy="3.423" rx="3.423" ry="3.423" transform="translate(1.141 1.141)"/><circle class="f" cx="0.57" cy="0.57" r="0.57" transform="translate(4.564 1.141)"/></g><path class="g" d="M3.039.5H42.945a2.539,2.539,0,0,1,0,5.079H3.039A2.539,2.539,0,1,1,3.039.5Z" transform="translate(124.657 15.099)"/><path class="h" d="M244.51,589.146H27.571A27.6,27.6,0,0,1,0,561.575v-534A27.6,27.6,0,0,1,27.571,0H56.784a4.942,4.942,0,0,1,3.795,3.751c.119.525.244,1.212.388,2.007.278,1.53.623,3.428,1.136,5.346.664,2.481,3.595,10.584,13.444,10.686,3.715.038,26.877.046,45.653.046,34.54,0,74.173-.027,76.028-.046,9.849-.1,12.78-8.2,13.444-10.686.514-1.922.86-3.822,1.137-5.35.145-.8.269-1.481.388-2A4.783,4.783,0,0,1,215.958,0H244.51a27.6,27.6,0,0,1,27.571,27.571v534A27.6,27.6,0,0,1,244.51,589.146Z" transform="translate(11.609 11.609)"/><path class="h" d="M244.51,589.146H27.571A27.6,27.6,0,0,1,0,561.575v-534A27.6,27.6,0,0,1,27.571,0H56.784a4.942,4.942,0,0,1,3.795,3.751c.119.525.244,1.212.388,2.007.278,1.53.623,3.428,1.136,5.346.664,2.481,3.595,10.584,13.444,10.686,3.715.038,26.877.046,45.653.046,34.54,0,74.173-.027,76.028-.046,9.849-.1,12.78-8.2,13.444-10.686.514-1.922.86-3.822,1.137-5.35.145-.8.269-1.481.388-2A4.783,4.783,0,0,1,215.958,0H244.51a27.6,27.6,0,0,1,27.571,27.571v534A27.6,27.6,0,0,1,244.51,589.146Z" transform="translate(11.609 11.609)"/><path class="i" d="M1.814,0H92.508a1.814,1.814,0,1,1,0,3.628H1.814A1.814,1.814,0,1,1,1.814,0Z" transform="translate(100.851 588.42)"/></g><g transform="translate(1116.362 324.803)"><path class="b" d="M34.1,0H261.2a34.1,34.1,0,0,1,34.1,34.1V578.263a34.1,34.1,0,0,1-34.1,34.1H34.1A34.1,34.1,0,0,1,0,578.263V34.1A34.1,34.1,0,0,1,34.1,0Z" transform="translate(0 0)"/><path class="c" d="M32.244,0H260.152A32.161,32.161,0,0,1,292.4,32.077V577.384a32.161,32.161,0,0,1-32.244,32.077H32.244A32.161,32.161,0,0,1,0,577.384V32.077A32.161,32.161,0,0,1,32.244,0Z" transform="translate(1.451 1.451)"/><g transform="translate(179.694 12.566)"><ellipse class="d" cx="5.115" cy="5.115" rx="5.115" ry="5.115" transform="translate(0 0)"/><circle class="c" cx="4.604" cy="4.604" r="4.604" transform="translate(0 0)"/><ellipse class="e" cx="3.581" cy="3.581" rx="3.581" ry="3.581" transform="translate(1.023 1.023)"/><circle class="f" cx="1.023" cy="1.023" r="1.023" transform="translate(4.092 1.023)"/></g><path class="g" d="M3.039.5H42.945a2.539,2.539,0,0,1,0,5.079H3.039A2.539,2.539,0,1,1,3.039.5Z" transform="translate(124.657 15.099)"/><path class="h" d="M244.51,589.146H27.571A27.6,27.6,0,0,1,0,561.575v-534A27.6,27.6,0,0,1,27.571,0H56.784a4.942,4.942,0,0,1,3.795,3.751c.119.525.244,1.212.388,2.007.278,1.53.623,3.428,1.136,5.346.664,2.481,3.595,10.584,13.444,10.686,3.715.038,26.877.046,45.653.046,34.54,0,74.173-.027,76.028-.046,9.849-.1,12.78-8.2,13.444-10.686.514-1.922.86-3.822,1.137-5.35.145-.8.269-1.481.388-2A4.783,4.783,0,0,1,215.958,0H244.51a27.6,27.6,0,0,1,27.571,27.571v534A27.6,27.6,0,0,1,244.51,589.146Z" transform="translate(11.609 11.609)"/><path class="h" d="M244.51,589.146H27.571A27.6,27.6,0,0,1,0,561.575v-534A27.6,27.6,0,0,1,27.571,0H56.784a4.942,4.942,0,0,1,3.795,3.751c.119.525.244,1.212.388,2.007.278,1.53.623,3.428,1.136,5.346.664,2.481,3.595,10.584,13.444,10.686,3.715.038,26.877.046,45.653.046,34.54,0,74.173-.027,76.028-.046,9.849-.1,12.78-8.2,13.444-10.686.514-1.922.86-3.822,1.137-5.35.145-.8.269-1.481.388-2A4.783,4.783,0,0,1,215.958,0H244.51a27.6,27.6,0,0,1,27.571,27.571v534A27.6,27.6,0,0,1,244.51,589.146Z" transform="translate(11.609 11.609)"/><path class="i" d="M1.814,0H92.508a1.814,1.814,0,1,1,0,3.628H1.814A1.814,1.814,0,1,1,1.814,0Z" transform="translate(100.851 588.42)"/></g></g></svg>