<svg xmlns="http://www.w3.org/2000/svg" xmlns:xlink="http://www.w3.org/1999/xlink" width="467.498" height="528.87" viewBox="0 0 467.498 528.87"><defs><style>.a{fill:url(#a);}.b{fill:url(#b);}.c{fill:url(#c);}.d,.f{fill:#f3f3f3;}.e{fill:#fff;}.f{stroke:#f9f8f8;}.g{fill:#e3e3e3;}.h{fill:#e2e2e2;}</style><linearGradient id="a" x1="0.5" x2="0.5" y2="1" gradientUnits="objectBoundingBox"><stop offset="0" stop-color="#f6f6f6"/><stop offset="1" stop-color="#ececec"/></linearGradient><linearGradient id="b" x1="0.5" x2="0.5" y2="1" gradientUnits="objectBoundingBox"><stop offset="0" stop-color="#fff"/><stop offset="1" stop-color="#f3f3f3"/></linearGradient><linearGradient id="c" x1="0.5" x2="0.5" y2="1" gradientUnits="objectBoundingBox"><stop offset="0" stop-color="#f3f3f3"/><stop offset="1" stop-color="#fff"/></linearGradient></defs><g transform="matrix(0.819, -0.574, 0.574, 0.819, 0, 133.5)"><path class="a" d="M26.878,0H205.873A26.878,26.878,0,0,1,232.75,26.878v428.9a26.878,26.878,0,0,1-26.878,26.878H26.878A26.878,26.878,0,0,1,0,455.779V26.878A26.878,26.878,0,0,1,26.878,0Z" transform="translate(0 0)"/><path class="b" d="M25.414,0H205.048a25.349,25.349,0,0,1,25.414,25.283v429.8a25.349,25.349,0,0,1-25.414,25.283H25.414A25.349,25.349,0,0,1,0,455.087V25.283A25.349,25.349,0,0,1,25.414,0Z" transform="translate(1.144 1.144)"/><g transform="translate(141.632 9.905)"><ellipse class="c" cx="4.032" cy="4.032" rx="4.032" ry="4.032" transform="translate(0 0)"/><circle class="b" cx="3.629" cy="3.629" r="3.629" transform="translate(0 0)"/><ellipse class="d" cx="2.822" cy="2.822" rx="2.822" ry="2.822" transform="translate(0.806 0.806)"/><circle class="e" cx="0.806" cy="0.806" r="0.806" transform="translate(3.225 0.806)"/></g><path class="f" d="M2,0H33.454a2,2,0,0,1,0,4H2A2,2,0,0,1,2,0Z" transform="translate(98.647 12.295)"/><path class="g" d="M192.719,464.357H21.731A21.755,21.755,0,0,1,0,442.626V21.731A21.756,21.756,0,0,1,21.731,0H44.756a3.9,3.9,0,0,1,2.991,2.957c.094.414.192.955.306,1.582.219,1.206.491,2.7.9,4.213.523,1.956,2.833,8.342,10.6,8.422,2.928.03,21.184.037,35.983.037,27.224,0,58.462-.021,59.924-.037,7.763-.08,10.073-6.467,10.6-8.422.405-1.515.678-3.013.9-4.216.114-.63.212-1.168.305-1.579A3.77,3.77,0,0,1,170.215,0h22.5A21.756,21.756,0,0,1,214.45,21.731V442.626A21.755,21.755,0,0,1,192.719,464.357Z" transform="translate(9.15 9.15)"/><path class="g" d="M192.719,464.357H21.731A21.755,21.755,0,0,1,0,442.626V21.731A21.756,21.756,0,0,1,21.731,0H44.756a3.9,3.9,0,0,1,2.991,2.957c.094.414.192.955.306,1.582.219,1.206.491,2.7.9,4.213.523,1.956,2.833,8.342,10.6,8.422,2.928.03,21.184.037,35.983.037,27.224,0,58.462-.021,59.924-.037,7.763-.08,10.073-6.467,10.6-8.422.405-1.515.678-3.013.9-4.216.114-.63.212-1.168.305-1.579A3.77,3.77,0,0,1,170.215,0h22.5A21.756,21.756,0,0,1,214.45,21.731V442.626A21.755,21.755,0,0,1,192.719,464.357Z" transform="translate(9.15 9.15)"/><path class="h" d="M1.43,0H72.913a1.43,1.43,0,0,1,0,2.859H1.43A1.43,1.43,0,1,1,1.43,0Z" transform="translate(79.49 463.785)"/></g></svg>