<svg xmlns="http://www.w3.org/2000/svg" xmlns:xlink="http://www.w3.org/1999/xlink" width="263.04" height="545.468" viewBox="0 0 263.04 545.468"><defs><style>.a{fill:url(#a);}.b{fill:url(#b);}.c{fill:url(#c);}.d,.f{fill:#f3f3f3;}.e{fill:#fff;}.f{stroke:#f9f8f8;}.g{fill:#e3e3e3;}.h{fill:#e2e2e2;}</style><linearGradient id="a" x1="0.5" x2="0.5" y2="1" gradientUnits="objectBoundingBox"><stop offset="0" stop-color="#f6f6f6"/><stop offset="1" stop-color="#ececec"/></linearGradient><linearGradient id="b" x1="0.5" x2="0.5" y2="1" gradientUnits="objectBoundingBox"><stop offset="0" stop-color="#fff"/><stop offset="1" stop-color="#f3f3f3"/></linearGradient><linearGradient id="c" x1="0.5" x2="0.5" y2="1" gradientUnits="objectBoundingBox"><stop offset="0" stop-color="#f3f3f3"/><stop offset="1" stop-color="#fff"/></linearGradient></defs><path class="a" d="M30.376,0H232.664A30.376,30.376,0,0,1,263.04,30.376V515.093a30.376,30.376,0,0,1-30.376,30.376H30.376A30.376,30.376,0,0,1,0,515.093V30.376A30.376,30.376,0,0,1,30.376,0Z" transform="translate(0 0)"/><path class="b" d="M28.722,0H231.733a28.648,28.648,0,0,1,28.722,28.573V514.31a28.648,28.648,0,0,1-28.722,28.573H28.722A28.648,28.648,0,0,1,0,514.31V28.573A28.648,28.648,0,0,1,28.722,0Z" transform="translate(1.293 1.293)"/><g transform="translate(160.064 11.194)"><ellipse class="c" cx="4.556" cy="4.556" rx="4.556" ry="4.556" transform="translate(0 0)"/><circle class="b" cx="4.101" cy="4.101" r="4.101" transform="translate(0 0)"/><ellipse class="d" cx="3.19" cy="3.19" rx="3.19" ry="3.19" transform="translate(0.911 0.911)"/><circle class="e" cx="0.911" cy="0.911" r="0.911" transform="translate(3.645 0.911)"/></g><path class="f" d="M2.262,0H37.808a2.262,2.262,0,0,1,0,4.524H2.262A2.262,2.262,0,0,1,2.262,0Z" transform="translate(111.485 13.895)"/><path class="g" d="M217.8,524.787H24.559A24.587,24.587,0,0,1,0,500.228V24.559A24.587,24.587,0,0,1,24.559,0H50.581a4.4,4.4,0,0,1,3.38,3.342c.106.468.217,1.08.346,1.788.248,1.363.555,3.054,1.012,4.762.591,2.21,3.2,9.428,11.975,9.518,3.309.034,23.941.041,40.666.041,30.767,0,66.071-.024,67.722-.041,8.773-.09,11.384-7.308,11.975-9.518.458-1.712.766-3.4,1.013-4.765.129-.712.24-1.319.345-1.784A4.261,4.261,0,0,1,192.366,0H217.8a24.587,24.587,0,0,1,24.559,24.559V500.228A24.587,24.587,0,0,1,217.8,524.787Z" transform="translate(10.341 10.341)"/><path class="g" d="M217.8,524.787H24.559A24.587,24.587,0,0,1,0,500.228V24.559A24.587,24.587,0,0,1,24.559,0H50.581a4.4,4.4,0,0,1,3.38,3.342c.106.468.217,1.08.346,1.788.248,1.363.555,3.054,1.012,4.762.591,2.21,3.2,9.428,11.975,9.518,3.309.034,23.941.041,40.666.041,30.767,0,66.071-.024,67.722-.041,8.773-.09,11.384-7.308,11.975-9.518.458-1.712.766-3.4,1.013-4.765.129-.712.24-1.319.345-1.784A4.261,4.261,0,0,1,192.366,0H217.8a24.587,24.587,0,0,1,24.559,24.559V500.228A24.587,24.587,0,0,1,217.8,524.787Z" transform="translate(10.341 10.341)"/><path class="h" d="M1.616,0H82.4a1.616,1.616,0,0,1,0,3.231H1.616A1.616,1.616,0,1,1,1.616,0Z" transform="translate(89.834 524.141)"/></svg>