<svg xmlns="http://www.w3.org/2000/svg" xmlns:xlink="http://www.w3.org/1999/xlink" width="236.038" height="489.475" viewBox="0 0 236.038 489.475"><defs><style>.a{fill:url(#a);}.b{fill:url(#b);}.c{fill:url(#c);}.d,.f{fill:#f3f3f3;}.e{fill:#fff;}.f{stroke:#f9f8f8;}.g{fill:#e3e3e3;}.h{fill:#e2e2e2;}</style><linearGradient id="a" x1="0.5" x2="0.5" y2="1" gradientUnits="objectBoundingBox"><stop offset="0" stop-color="#f6f6f6"/><stop offset="1" stop-color="#ececec"/></linearGradient><linearGradient id="b" x1="0.5" x2="0.5" y2="1" gradientUnits="objectBoundingBox"><stop offset="0" stop-color="#fff"/><stop offset="1" stop-color="#f3f3f3"/></linearGradient><linearGradient id="c" x1="0.5" x2="0.5" y2="1" gradientUnits="objectBoundingBox"><stop offset="0" stop-color="#f3f3f3"/><stop offset="1" stop-color="#fff"/></linearGradient></defs><g transform="translate(-8.915 -6.474)"><path class="a" d="M27.257,0H208.781a27.257,27.257,0,0,1,27.258,27.257v434.96a27.257,27.257,0,0,1-27.258,27.257H27.257A27.257,27.257,0,0,1,0,462.217V27.257A27.257,27.257,0,0,1,27.257,0Z" transform="translate(8.915 6.474)"/><path class="b" d="M25.773,0H207.945a25.707,25.707,0,0,1,25.773,25.64V461.515a25.707,25.707,0,0,1-25.773,25.64H25.773A25.707,25.707,0,0,1,0,461.515V25.64A25.707,25.707,0,0,1,25.773,0Z" transform="translate(10.075 7.634)"/><g transform="translate(152.548 16.519)"><ellipse class="c" cx="4.089" cy="4.089" rx="4.089" ry="4.089" transform="translate(0 0)"/><circle class="b" cx="3.68" cy="3.68" r="3.68" transform="translate(0 0)"/><ellipse class="d" cx="2.862" cy="2.862" rx="2.862" ry="2.862" transform="translate(0.818 0.818)"/><circle class="e" cx="0.818" cy="0.818" r="0.818" transform="translate(3.271 0.818)"/></g><path class="f" d="M2.53.5h31.9a2.03,2.03,0,0,1,0,4.06H2.53A2.03,2.03,0,1,1,2.53.5Z" transform="translate(108.456 18.443)"/><path class="g" d="M195.442,470.916H22.038A22.063,22.063,0,0,1,0,448.878V22.038A22.063,22.063,0,0,1,22.038,0H45.388a3.95,3.95,0,0,1,3.033,3c.1.42.2.969.31,1.6.222,1.223.5,2.74.908,4.273.531,1.983,2.874,8.46,10.746,8.541,2.97.031,21.483.037,36.492.037,27.609,0,59.288-.022,60.77-.037,7.872-.081,10.215-6.558,10.746-8.541.411-1.536.687-3.055.909-4.276.116-.639.215-1.184.31-1.6a3.823,3.823,0,0,1,3.006-3h22.822A22.063,22.063,0,0,1,217.48,22.038v426.84A22.063,22.063,0,0,1,195.442,470.916Z" transform="translate(18.194 15.753)"/><path class="g" d="M195.442,470.916H22.038A22.063,22.063,0,0,1,0,448.878V22.038A22.063,22.063,0,0,1,22.038,0H45.388a3.95,3.95,0,0,1,3.033,3c.1.42.2.969.31,1.6.222,1.223.5,2.74.908,4.273.531,1.983,2.874,8.46,10.746,8.541,2.97.031,21.483.037,36.492.037,27.609,0,59.288-.022,60.77-.037,7.872-.081,10.215-6.558,10.746-8.541.411-1.536.687-3.055.909-4.276.116-.639.215-1.184.31-1.6a3.823,3.823,0,0,1,3.006-3h22.822A22.063,22.063,0,0,1,217.48,22.038v426.84A22.063,22.063,0,0,1,195.442,470.916Z" transform="translate(18.194 15.753)"/><path class="h" d="M1.45,0H73.943a1.45,1.45,0,1,1,0,2.9H1.45a1.45,1.45,0,1,1,0-2.9Z" transform="translate(89.527 476.811)"/></g></svg>